<mxfile host="app.diagrams.net" agent="Mozilla/5.0 (Windows NT 10.0; Win64; x64) AppleWebKit/537.36 (KHTML, like Gecko) Chrome/130.0.0.0 Safari/537.36" version="24.8.3" pages="2">
  <diagram name="use case" id="ukxG8gzlgrs9HhvgwXRx">
    <mxGraphModel dx="1058" dy="505" grid="1" gridSize="10" guides="1" tooltips="1" connect="1" arrows="1" fold="1" page="1" pageScale="1" pageWidth="850" pageHeight="1100" math="0" shadow="0">
      <root>
        <mxCell id="0" />
        <mxCell id="1" parent="0" />
        <mxCell id="dq5n2X-4svsOP9GwLVwc-16" style="edgeStyle=orthogonalEdgeStyle;rounded=1;orthogonalLoop=1;jettySize=auto;html=1;curved=0;entryX=-0.021;entryY=0.49;entryDx=0;entryDy=0;entryPerimeter=0;" edge="1" parent="1" target="dq5n2X-4svsOP9GwLVwc-13">
          <mxGeometry relative="1" as="geometry">
            <mxPoint x="130" y="267.0000000000001" as="sourcePoint" />
            <mxPoint x="240" y="273" as="targetPoint" />
          </mxGeometry>
        </mxCell>
        <mxCell id="dq5n2X-4svsOP9GwLVwc-21" style="edgeStyle=orthogonalEdgeStyle;rounded=1;orthogonalLoop=1;jettySize=auto;html=1;entryX=0;entryY=0.5;entryDx=0;entryDy=0;curved=0;" edge="1" parent="1" source="dq5n2X-4svsOP9GwLVwc-3" target="dq5n2X-4svsOP9GwLVwc-8">
          <mxGeometry relative="1" as="geometry">
            <Array as="points">
              <mxPoint x="115" y="125" />
            </Array>
          </mxGeometry>
        </mxCell>
        <mxCell id="FcmRMaOT2FB6kB3QNHi_-1" style="edgeStyle=orthogonalEdgeStyle;rounded=1;orthogonalLoop=1;jettySize=auto;html=1;entryX=0.5;entryY=1;entryDx=0;entryDy=0;curved=0;" edge="1" parent="1" source="dq5n2X-4svsOP9GwLVwc-3" target="dq5n2X-4svsOP9GwLVwc-6">
          <mxGeometry relative="1" as="geometry">
            <Array as="points">
              <mxPoint x="115" y="650" />
              <mxPoint x="410" y="650" />
            </Array>
          </mxGeometry>
        </mxCell>
        <mxCell id="dq5n2X-4svsOP9GwLVwc-3" value="admin&amp;nbsp;&lt;div&gt;bidang&lt;/div&gt;" style="shape=umlActor;verticalLabelPosition=bottom;verticalAlign=top;html=1;outlineConnect=0;align=center;" vertex="1" parent="1">
          <mxGeometry x="100" y="244" width="30" height="60" as="geometry" />
        </mxCell>
        <mxCell id="dq5n2X-4svsOP9GwLVwc-4" value="SI RetPo" style="shape=umlFrame;whiteSpace=wrap;html=1;pointerEvents=0;fillColor=#C491E6;width=120;height=30;" vertex="1" parent="1">
          <mxGeometry x="170" y="40" width="420" height="630" as="geometry" />
        </mxCell>
        <mxCell id="dq5n2X-4svsOP9GwLVwc-5" value="front office" style="shape=umlActor;verticalLabelPosition=bottom;verticalAlign=top;html=1;outlineConnect=0;" vertex="1" parent="1">
          <mxGeometry x="664" y="315" width="30" height="60" as="geometry" />
        </mxCell>
        <mxCell id="dq5n2X-4svsOP9GwLVwc-6" value="melakukan&amp;nbsp;&lt;div&gt;login&lt;/div&gt;" style="ellipse;whiteSpace=wrap;html=1;strokeColor=#0000FF;shadow=0;" vertex="1" parent="1">
          <mxGeometry x="350" y="580" width="120" height="50" as="geometry" />
        </mxCell>
        <mxCell id="dq5n2X-4svsOP9GwLVwc-7" value="menambahkan&amp;nbsp;&lt;div&gt;data retribusi&lt;/div&gt;" style="ellipse;whiteSpace=wrap;html=1;strokeColor=#0000FF;shadow=0;" vertex="1" parent="1">
          <mxGeometry x="350" y="320" width="120" height="50" as="geometry" />
        </mxCell>
        <mxCell id="dq5n2X-4svsOP9GwLVwc-28" style="rounded=0;orthogonalLoop=1;jettySize=auto;html=1;entryX=0;entryY=0.5;entryDx=0;entryDy=0;dashed=1;" edge="1" parent="1" source="dq5n2X-4svsOP9GwLVwc-8" target="dq5n2X-4svsOP9GwLVwc-9">
          <mxGeometry relative="1" as="geometry" />
        </mxCell>
        <mxCell id="dq5n2X-4svsOP9GwLVwc-29" style="edgeStyle=orthogonalEdgeStyle;rounded=0;orthogonalLoop=1;jettySize=auto;html=1;entryX=0;entryY=0.5;entryDx=0;entryDy=0;dashed=1;" edge="1" parent="1" source="dq5n2X-4svsOP9GwLVwc-8" target="dq5n2X-4svsOP9GwLVwc-10">
          <mxGeometry relative="1" as="geometry" />
        </mxCell>
        <mxCell id="dq5n2X-4svsOP9GwLVwc-30" style="rounded=0;orthogonalLoop=1;jettySize=auto;html=1;entryX=0;entryY=0.5;entryDx=0;entryDy=0;dashed=1;" edge="1" parent="1" source="dq5n2X-4svsOP9GwLVwc-8" target="dq5n2X-4svsOP9GwLVwc-11">
          <mxGeometry relative="1" as="geometry" />
        </mxCell>
        <mxCell id="dq5n2X-4svsOP9GwLVwc-8" value="mengelola data&lt;div&gt;front office&lt;/div&gt;" style="ellipse;whiteSpace=wrap;html=1;strokeColor=#0000FF;shadow=0;" vertex="1" parent="1">
          <mxGeometry x="271" y="100" width="120" height="50" as="geometry" />
        </mxCell>
        <mxCell id="dq5n2X-4svsOP9GwLVwc-9" value="tambah" style="ellipse;whiteSpace=wrap;html=1;strokeColor=#0000FF;shadow=0;" vertex="1" parent="1">
          <mxGeometry x="479" y="72" width="90" height="30" as="geometry" />
        </mxCell>
        <mxCell id="dq5n2X-4svsOP9GwLVwc-10" value="ubah" style="ellipse;whiteSpace=wrap;html=1;strokeColor=#0000FF;shadow=0;" vertex="1" parent="1">
          <mxGeometry x="479" y="110" width="90" height="30" as="geometry" />
        </mxCell>
        <mxCell id="dq5n2X-4svsOP9GwLVwc-11" value="hapus" style="ellipse;whiteSpace=wrap;html=1;strokeColor=#0000FF;shadow=0;" vertex="1" parent="1">
          <mxGeometry x="481" y="157" width="90" height="30" as="geometry" />
        </mxCell>
        <mxCell id="dq5n2X-4svsOP9GwLVwc-12" value="mengubah&amp;nbsp;&lt;div&gt;data retribusi&lt;/div&gt;" style="ellipse;whiteSpace=wrap;html=1;strokeColor=#0000FF;shadow=0;" vertex="1" parent="1">
          <mxGeometry x="240" y="180" width="120" height="50" as="geometry" />
        </mxCell>
        <mxCell id="dq5n2X-4svsOP9GwLVwc-38" style="edgeStyle=orthogonalEdgeStyle;rounded=1;orthogonalLoop=1;jettySize=auto;html=1;entryX=0;entryY=0.5;entryDx=0;entryDy=0;curved=0;dashed=1;" edge="1" parent="1" source="dq5n2X-4svsOP9GwLVwc-13" target="dq5n2X-4svsOP9GwLVwc-6">
          <mxGeometry relative="1" as="geometry">
            <Array as="points">
              <mxPoint x="300" y="600" />
              <mxPoint x="350" y="600" />
            </Array>
          </mxGeometry>
        </mxCell>
        <mxCell id="dq5n2X-4svsOP9GwLVwc-13" value="membatalkan&lt;div&gt;data retribusi&lt;/div&gt;" style="ellipse;whiteSpace=wrap;html=1;strokeColor=#0000FF;shadow=0;" vertex="1" parent="1">
          <mxGeometry x="240" y="268" width="120" height="50" as="geometry" />
        </mxCell>
        <mxCell id="dq5n2X-4svsOP9GwLVwc-14" value="&lt;div&gt;mengecek&amp;nbsp;&lt;/div&gt;&lt;div&gt;rekapan data&lt;/div&gt;" style="ellipse;whiteSpace=wrap;html=1;strokeColor=#0000FF;shadow=0;" vertex="1" parent="1">
          <mxGeometry x="350" y="390" width="120" height="50" as="geometry" />
        </mxCell>
        <mxCell id="dq5n2X-4svsOP9GwLVwc-31" style="edgeStyle=orthogonalEdgeStyle;rounded=0;orthogonalLoop=1;jettySize=auto;html=1;dashed=1;" edge="1" parent="1" source="dq5n2X-4svsOP9GwLVwc-15" target="dq5n2X-4svsOP9GwLVwc-6">
          <mxGeometry relative="1" as="geometry" />
        </mxCell>
        <mxCell id="dq5n2X-4svsOP9GwLVwc-32" value="&lt;font style=&quot;font-size: 9px;&quot;&gt;&amp;lt;&amp;lt;include&amp;gt;&amp;gt;&lt;/font&gt;" style="edgeLabel;html=1;align=center;verticalAlign=middle;resizable=0;points=[];" vertex="1" connectable="0" parent="dq5n2X-4svsOP9GwLVwc-31">
          <mxGeometry x="-0.2914" y="-1" relative="1" as="geometry">
            <mxPoint y="-3" as="offset" />
          </mxGeometry>
        </mxCell>
        <mxCell id="dq5n2X-4svsOP9GwLVwc-15" value="mencetak&amp;nbsp;&lt;div&gt;laporan&lt;/div&gt;" style="ellipse;whiteSpace=wrap;html=1;strokeColor=#0000FF;shadow=0;" vertex="1" parent="1">
          <mxGeometry x="350" y="460" width="120" height="50" as="geometry" />
        </mxCell>
        <mxCell id="dq5n2X-4svsOP9GwLVwc-19" value="" style="endArrow=classic;html=1;rounded=1;" edge="1" parent="1" source="dq5n2X-4svsOP9GwLVwc-5" target="dq5n2X-4svsOP9GwLVwc-7">
          <mxGeometry width="50" height="50" relative="1" as="geometry">
            <mxPoint x="510" y="330" as="sourcePoint" />
            <mxPoint x="560" y="280" as="targetPoint" />
            <Array as="points">
              <mxPoint x="630" y="345" />
            </Array>
          </mxGeometry>
        </mxCell>
        <mxCell id="dq5n2X-4svsOP9GwLVwc-20" style="edgeStyle=orthogonalEdgeStyle;rounded=1;orthogonalLoop=1;jettySize=auto;html=1;curved=0;entryX=0;entryY=0.5;entryDx=0;entryDy=0;" edge="1" parent="1" source="dq5n2X-4svsOP9GwLVwc-3" target="dq5n2X-4svsOP9GwLVwc-12">
          <mxGeometry relative="1" as="geometry">
            <mxPoint x="140" y="250" as="sourcePoint" />
            <mxPoint x="250" y="285" as="targetPoint" />
            <Array as="points">
              <mxPoint x="190" y="250" />
              <mxPoint x="190" y="205" />
            </Array>
          </mxGeometry>
        </mxCell>
        <mxCell id="dq5n2X-4svsOP9GwLVwc-23" value="" style="endArrow=classic;html=1;rounded=1;entryX=0;entryY=0.5;entryDx=0;entryDy=0;" edge="1" parent="1" source="dq5n2X-4svsOP9GwLVwc-3" target="dq5n2X-4svsOP9GwLVwc-7">
          <mxGeometry width="50" height="50" relative="1" as="geometry">
            <mxPoint x="130" y="290" as="sourcePoint" />
            <mxPoint x="-100" y="352" as="targetPoint" />
            <Array as="points">
              <mxPoint x="240" y="345" />
            </Array>
          </mxGeometry>
        </mxCell>
        <mxCell id="dq5n2X-4svsOP9GwLVwc-24" value="" style="endArrow=classic;html=1;rounded=1;entryX=0;entryY=0.5;entryDx=0;entryDy=0;" edge="1" parent="1" target="dq5n2X-4svsOP9GwLVwc-14">
          <mxGeometry width="50" height="50" relative="1" as="geometry">
            <mxPoint x="130" y="290" as="sourcePoint" />
            <mxPoint x="350" y="362" as="targetPoint" />
            <Array as="points" />
          </mxGeometry>
        </mxCell>
        <mxCell id="dq5n2X-4svsOP9GwLVwc-25" value="" style="endArrow=classic;html=1;rounded=1;" edge="1" parent="1" source="dq5n2X-4svsOP9GwLVwc-5">
          <mxGeometry width="50" height="50" relative="1" as="geometry">
            <mxPoint x="700" y="354" as="sourcePoint" />
            <mxPoint x="470" y="416" as="targetPoint" />
            <Array as="points">
              <mxPoint x="560" y="416" />
            </Array>
          </mxGeometry>
        </mxCell>
        <mxCell id="dq5n2X-4svsOP9GwLVwc-26" value="" style="endArrow=classic;html=1;rounded=1;entryX=0.024;entryY=0.271;entryDx=0;entryDy=0;entryPerimeter=0;exitX=1;exitY=1;exitDx=0;exitDy=0;exitPerimeter=0;" edge="1" parent="1" source="dq5n2X-4svsOP9GwLVwc-3" target="dq5n2X-4svsOP9GwLVwc-15">
          <mxGeometry width="50" height="50" relative="1" as="geometry">
            <mxPoint x="140" y="310" as="sourcePoint" />
            <mxPoint x="360" y="425" as="targetPoint" />
            <Array as="points" />
          </mxGeometry>
        </mxCell>
        <mxCell id="dq5n2X-4svsOP9GwLVwc-27" value="" style="endArrow=classic;html=1;rounded=1;exitX=0;exitY=1;exitDx=0;exitDy=0;exitPerimeter=0;" edge="1" parent="1" source="dq5n2X-4svsOP9GwLVwc-5">
          <mxGeometry width="50" height="50" relative="1" as="geometry">
            <mxPoint x="700" y="420" as="sourcePoint" />
            <mxPoint x="470" y="482" as="targetPoint" />
            <Array as="points">
              <mxPoint x="560" y="480" />
            </Array>
          </mxGeometry>
        </mxCell>
        <mxCell id="dq5n2X-4svsOP9GwLVwc-33" style="edgeStyle=elbowEdgeStyle;rounded=1;orthogonalLoop=1;jettySize=auto;html=1;dashed=1;exitX=0.921;exitY=0.757;exitDx=0;exitDy=0;exitPerimeter=0;entryX=0.957;entryY=0.34;entryDx=0;entryDy=0;entryPerimeter=0;" edge="1" parent="1" target="dq5n2X-4svsOP9GwLVwc-6">
          <mxGeometry relative="1" as="geometry">
            <mxPoint x="460.5200000000002" y="356.55" as="sourcePoint" />
            <mxPoint x="445.6400000000001" y="580.0000000000001" as="targetPoint" />
            <Array as="points">
              <mxPoint x="520" y="480.01" />
            </Array>
          </mxGeometry>
        </mxCell>
        <mxCell id="dq5n2X-4svsOP9GwLVwc-34" value="&lt;font style=&quot;font-size: 9px;&quot;&gt;&amp;lt;&amp;lt;include&amp;gt;&amp;gt;&lt;/font&gt;" style="edgeLabel;html=1;align=center;verticalAlign=middle;resizable=0;points=[];" vertex="1" connectable="0" parent="dq5n2X-4svsOP9GwLVwc-33">
          <mxGeometry x="-0.2914" y="-1" relative="1" as="geometry">
            <mxPoint y="-47" as="offset" />
          </mxGeometry>
        </mxCell>
        <mxCell id="dq5n2X-4svsOP9GwLVwc-36" style="edgeStyle=elbowEdgeStyle;rounded=1;orthogonalLoop=1;jettySize=auto;html=1;dashed=1;exitX=0.029;exitY=0.643;exitDx=0;exitDy=0;exitPerimeter=0;entryX=0.092;entryY=0.193;entryDx=0;entryDy=0;entryPerimeter=0;" edge="1" parent="1" source="dq5n2X-4svsOP9GwLVwc-14" target="dq5n2X-4svsOP9GwLVwc-6">
          <mxGeometry relative="1" as="geometry">
            <mxPoint x="470.5200000000002" y="366.55" as="sourcePoint" />
            <mxPoint x="480" y="615" as="targetPoint" />
            <Array as="points">
              <mxPoint x="320" y="510" />
            </Array>
          </mxGeometry>
        </mxCell>
        <mxCell id="dq5n2X-4svsOP9GwLVwc-37" value="&lt;font style=&quot;font-size: 9px;&quot;&gt;&amp;lt;&amp;lt;include&amp;gt;&amp;gt;&lt;/font&gt;" style="edgeLabel;html=1;align=center;verticalAlign=middle;resizable=0;points=[];" vertex="1" connectable="0" parent="dq5n2X-4svsOP9GwLVwc-36">
          <mxGeometry x="-0.2914" y="-1" relative="1" as="geometry">
            <mxPoint x="13" y="-45" as="offset" />
          </mxGeometry>
        </mxCell>
        <mxCell id="dq5n2X-4svsOP9GwLVwc-39" style="edgeStyle=orthogonalEdgeStyle;rounded=1;orthogonalLoop=1;jettySize=auto;html=1;exitX=0;exitY=1;exitDx=0;exitDy=0;curved=0;dashed=1;" edge="1" parent="1" source="dq5n2X-4svsOP9GwLVwc-12" target="dq5n2X-4svsOP9GwLVwc-6">
          <mxGeometry relative="1" as="geometry">
            <Array as="points">
              <mxPoint x="220" y="223" />
              <mxPoint x="220" y="610" />
            </Array>
          </mxGeometry>
        </mxCell>
        <mxCell id="dq5n2X-4svsOP9GwLVwc-40" value="&lt;font style=&quot;font-size: 9px;&quot;&gt;&amp;lt;&amp;lt;include&amp;gt;&amp;gt;&lt;/font&gt;" style="edgeLabel;html=1;align=center;verticalAlign=middle;resizable=0;points=[];" vertex="1" connectable="0" parent="1">
          <mxGeometry x="290" y="328.9969565217392" as="geometry" />
        </mxCell>
        <mxCell id="dq5n2X-4svsOP9GwLVwc-41" value="&lt;font style=&quot;font-size: 9px;&quot;&gt;&amp;lt;&amp;lt;include&amp;gt;&amp;gt;&lt;/font&gt;" style="edgeLabel;html=1;align=center;verticalAlign=middle;resizable=0;points=[];" vertex="1" connectable="0" parent="1">
          <mxGeometry x="220" y="484.9969565217392" as="geometry" />
        </mxCell>
        <mxCell id="dq5n2X-4svsOP9GwLVwc-42" style="edgeStyle=orthogonalEdgeStyle;rounded=1;orthogonalLoop=1;jettySize=auto;html=1;exitX=0.058;exitY=0.727;exitDx=0;exitDy=0;curved=0;dashed=1;exitPerimeter=0;entryX=0.094;entryY=0.795;entryDx=0;entryDy=0;entryPerimeter=0;" edge="1" parent="1" source="dq5n2X-4svsOP9GwLVwc-8" target="dq5n2X-4svsOP9GwLVwc-6">
          <mxGeometry relative="1" as="geometry">
            <mxPoint x="267" y="232" as="sourcePoint" />
            <mxPoint x="372" y="630" as="targetPoint" />
            <Array as="points">
              <mxPoint x="180" y="136" />
              <mxPoint x="180" y="620" />
              <mxPoint x="361" y="620" />
            </Array>
          </mxGeometry>
        </mxCell>
        <mxCell id="dq5n2X-4svsOP9GwLVwc-43" value="&lt;font style=&quot;font-size: 9px;&quot;&gt;&amp;lt;&amp;lt;include&amp;gt;&amp;gt;&lt;/font&gt;" style="edgeLabel;html=1;align=center;verticalAlign=middle;resizable=0;points=[];" vertex="1" connectable="0" parent="1">
          <mxGeometry x="211" y="436.9969565217392" as="geometry">
            <mxPoint x="8" y="-291" as="offset" />
          </mxGeometry>
        </mxCell>
        <mxCell id="dq5n2X-4svsOP9GwLVwc-44" value="&lt;font style=&quot;font-size: 9px;&quot;&gt;&amp;lt;&amp;lt;extend&amp;gt;&amp;gt;&lt;/font&gt;" style="edgeLabel;html=1;align=center;verticalAlign=middle;resizable=0;points=[];" vertex="1" connectable="0" parent="1">
          <mxGeometry x="412" y="442.9969565217392" as="geometry">
            <mxPoint x="8" y="-291" as="offset" />
          </mxGeometry>
        </mxCell>
        <mxCell id="dq5n2X-4svsOP9GwLVwc-45" value="&lt;font style=&quot;font-size: 9px;&quot;&gt;&amp;lt;&amp;lt;extend&amp;gt;&amp;gt;&lt;/font&gt;" style="edgeLabel;html=1;align=center;verticalAlign=middle;resizable=0;points=[];" vertex="1" connectable="0" parent="1">
          <mxGeometry x="420" y="385.9969565217392" as="geometry">
            <mxPoint x="8" y="-291" as="offset" />
          </mxGeometry>
        </mxCell>
        <mxCell id="dq5n2X-4svsOP9GwLVwc-46" value="&lt;font style=&quot;font-size: 9px;&quot;&gt;&amp;lt;&amp;lt;extend&amp;gt;&amp;gt;&lt;/font&gt;" style="edgeLabel;html=1;align=center;verticalAlign=middle;resizable=0;points=[];" vertex="1" connectable="0" parent="1">
          <mxGeometry x="425" y="414.9969565217392" as="geometry">
            <mxPoint x="8" y="-291" as="offset" />
          </mxGeometry>
        </mxCell>
        <mxCell id="FcmRMaOT2FB6kB3QNHi_-2" style="edgeStyle=orthogonalEdgeStyle;rounded=1;orthogonalLoop=1;jettySize=auto;html=1;curved=0;entryX=1.01;entryY=0.588;entryDx=0;entryDy=0;entryPerimeter=0;" edge="1" parent="1" source="dq5n2X-4svsOP9GwLVwc-5" target="dq5n2X-4svsOP9GwLVwc-6">
          <mxGeometry relative="1" as="geometry">
            <Array as="points">
              <mxPoint x="679" y="609" />
            </Array>
          </mxGeometry>
        </mxCell>
      </root>
    </mxGraphModel>
  </diagram>
  <diagram id="YjW7AD87J3cKyNsbQVYq" name="bpmn">
    <mxGraphModel dx="1111" dy="530" grid="1" gridSize="10" guides="1" tooltips="1" connect="1" arrows="1" fold="1" page="1" pageScale="1" pageWidth="850" pageHeight="1100" math="0" shadow="0">
      <root>
        <mxCell id="0" />
        <mxCell id="1" parent="0" />
        <mxCell id="PzXRuTa8uYMyeLOgMuWR-1" value="login admin" style="swimlane;html=1;childLayout=stackLayout;resizeParent=1;resizeParentMax=0;horizontal=0;startSize=20;horizontalStack=0;fontSize=10;" vertex="1" parent="1">
          <mxGeometry x="130" y="50" width="960" height="280" as="geometry" />
        </mxCell>
        <mxCell id="PzXRuTa8uYMyeLOgMuWR-2" value="" style="edgeStyle=orthogonalEdgeStyle;rounded=0;orthogonalLoop=1;jettySize=auto;html=1;endArrow=classic;endFill=1;" edge="1" parent="PzXRuTa8uYMyeLOgMuWR-1" source="PzXRuTa8uYMyeLOgMuWR-6" target="PzXRuTa8uYMyeLOgMuWR-11">
          <mxGeometry relative="1" as="geometry" />
        </mxCell>
        <mxCell id="PzXRuTa8uYMyeLOgMuWR-3" value="admin kantor" style="swimlane;html=1;startSize=20;horizontal=0;" vertex="1" parent="PzXRuTa8uYMyeLOgMuWR-1">
          <mxGeometry x="20" width="940" height="120" as="geometry" />
        </mxCell>
        <mxCell id="PzXRuTa8uYMyeLOgMuWR-4" value="" style="edgeStyle=orthogonalEdgeStyle;rounded=0;orthogonalLoop=1;jettySize=auto;html=1;" edge="1" parent="PzXRuTa8uYMyeLOgMuWR-3" source="PzXRuTa8uYMyeLOgMuWR-5" target="PzXRuTa8uYMyeLOgMuWR-6">
          <mxGeometry relative="1" as="geometry" />
        </mxCell>
        <mxCell id="PzXRuTa8uYMyeLOgMuWR-5" value="" style="ellipse;whiteSpace=wrap;html=1;" vertex="1" parent="PzXRuTa8uYMyeLOgMuWR-3">
          <mxGeometry x="40" y="40" width="40" height="40" as="geometry" />
        </mxCell>
        <mxCell id="PzXRuTa8uYMyeLOgMuWR-6" value="&lt;font style=&quot;font-size: 10px;&quot;&gt;memilih menu login di halaman dashboard&lt;/font&gt;" style="rounded=1;whiteSpace=wrap;html=1;fontFamily=Helvetica;fontSize=12;fontColor=#000000;align=center;" vertex="1" parent="PzXRuTa8uYMyeLOgMuWR-3">
          <mxGeometry x="120" y="30" width="80" height="60" as="geometry" />
        </mxCell>
        <mxCell id="PzXRuTa8uYMyeLOgMuWR-7" value="" style="edgeStyle=orthogonalEdgeStyle;rounded=0;orthogonalLoop=1;jettySize=auto;html=1;" edge="1" parent="PzXRuTa8uYMyeLOgMuWR-3" source="PzXRuTa8uYMyeLOgMuWR-8" target="PzXRuTa8uYMyeLOgMuWR-9">
          <mxGeometry relative="1" as="geometry" />
        </mxCell>
        <mxCell id="PzXRuTa8uYMyeLOgMuWR-8" value="&lt;font style=&quot;font-size: 10px;&quot;&gt;mengisi username dan password&lt;/font&gt;" style="rounded=1;whiteSpace=wrap;html=1;fontColor=#000000;" vertex="1" parent="PzXRuTa8uYMyeLOgMuWR-3">
          <mxGeometry x="230" y="30" width="80" height="60" as="geometry" />
        </mxCell>
        <mxCell id="PzXRuTa8uYMyeLOgMuWR-9" value="&lt;font style=&quot;font-size: 10px;&quot;&gt;klik tombol login&lt;/font&gt;" style="whiteSpace=wrap;html=1;fontColor=#000000;rounded=1;" vertex="1" parent="PzXRuTa8uYMyeLOgMuWR-3">
          <mxGeometry x="350" y="37" width="60" height="45" as="geometry" />
        </mxCell>
        <mxCell id="PzXRuTa8uYMyeLOgMuWR-10" value="siperkakaspinter" style="swimlane;html=1;startSize=20;horizontal=0;" vertex="1" parent="PzXRuTa8uYMyeLOgMuWR-1">
          <mxGeometry x="20" y="120" width="940" height="160" as="geometry" />
        </mxCell>
        <mxCell id="PzXRuTa8uYMyeLOgMuWR-11" value="&lt;font style=&quot;font-size: 10px;&quot;&gt;menampilkan form login&lt;/font&gt;" style="rounded=1;whiteSpace=wrap;html=1;fontFamily=Helvetica;fontSize=12;fontColor=#000000;align=center;" vertex="1" parent="PzXRuTa8uYMyeLOgMuWR-10">
          <mxGeometry x="120" y="40" width="80" height="60" as="geometry" />
        </mxCell>
        <mxCell id="PzXRuTa8uYMyeLOgMuWR-12" value="" style="edgeStyle=orthogonalEdgeStyle;rounded=0;orthogonalLoop=1;jettySize=auto;html=1;entryX=0.997;entryY=0.667;entryDx=0;entryDy=0;entryPerimeter=0;" edge="1" parent="PzXRuTa8uYMyeLOgMuWR-10" source="PzXRuTa8uYMyeLOgMuWR-14" target="PzXRuTa8uYMyeLOgMuWR-11">
          <mxGeometry relative="1" as="geometry">
            <mxPoint x="280" y="80" as="targetPoint" />
          </mxGeometry>
        </mxCell>
        <mxCell id="PzXRuTa8uYMyeLOgMuWR-13" value="" style="edgeStyle=orthogonalEdgeStyle;rounded=0;orthogonalLoop=1;jettySize=auto;html=1;" edge="1" parent="PzXRuTa8uYMyeLOgMuWR-10" source="PzXRuTa8uYMyeLOgMuWR-14" target="PzXRuTa8uYMyeLOgMuWR-19">
          <mxGeometry relative="1" as="geometry" />
        </mxCell>
        <mxCell id="PzXRuTa8uYMyeLOgMuWR-14" value="" style="rhombus;whiteSpace=wrap;html=1;fontColor=#000000;rounded=0;" vertex="1" parent="PzXRuTa8uYMyeLOgMuWR-10">
          <mxGeometry x="340" y="40" width="80" height="80" as="geometry" />
        </mxCell>
        <mxCell id="PzXRuTa8uYMyeLOgMuWR-15" value="&lt;font style=&quot;font-size: 7px;&quot;&gt;data login valid?&lt;/font&gt;" style="text;html=1;align=center;verticalAlign=middle;whiteSpace=wrap;rounded=0;" vertex="1" parent="PzXRuTa8uYMyeLOgMuWR-10">
          <mxGeometry x="320" y="10" width="60" height="20" as="geometry" />
        </mxCell>
        <mxCell id="PzXRuTa8uYMyeLOgMuWR-16" value="&lt;font style=&quot;font-size: 8px;&quot;&gt;tidak&lt;/font&gt;" style="text;html=1;align=center;verticalAlign=middle;whiteSpace=wrap;rounded=0;" vertex="1" parent="PzXRuTa8uYMyeLOgMuWR-10">
          <mxGeometry x="307" y="63" width="40" height="15" as="geometry" />
        </mxCell>
        <mxCell id="PzXRuTa8uYMyeLOgMuWR-17" value="&lt;font style=&quot;font-size: 8px;&quot;&gt;ya&lt;/font&gt;" style="text;html=1;align=center;verticalAlign=middle;whiteSpace=wrap;rounded=0;" vertex="1" parent="PzXRuTa8uYMyeLOgMuWR-10">
          <mxGeometry x="420" y="62.5" width="40" height="15" as="geometry" />
        </mxCell>
        <mxCell id="PzXRuTa8uYMyeLOgMuWR-18" value="menampilkan halaman admin" style="whiteSpace=wrap;html=1;fontColor=#000000;rounded=1;fontSize=10;" vertex="1" parent="PzXRuTa8uYMyeLOgMuWR-10">
          <mxGeometry x="770" y="62.5" width="80" height="40" as="geometry" />
        </mxCell>
        <mxCell id="PzXRuTa8uYMyeLOgMuWR-19" value="" style="rhombus;whiteSpace=wrap;html=1;fontColor=#000000;rounded=0;" vertex="1" parent="PzXRuTa8uYMyeLOgMuWR-10">
          <mxGeometry x="480" y="40" width="80" height="80" as="geometry" />
        </mxCell>
        <mxCell id="PzXRuTa8uYMyeLOgMuWR-20" value="" style="endArrow=classic;html=1;rounded=1;exitX=0.5;exitY=1;exitDx=0;exitDy=0;entryX=-0.022;entryY=0.62;entryDx=0;entryDy=0;entryPerimeter=0;curved=0;" edge="1" parent="PzXRuTa8uYMyeLOgMuWR-10" source="PzXRuTa8uYMyeLOgMuWR-19" target="PzXRuTa8uYMyeLOgMuWR-26">
          <mxGeometry width="50" height="50" relative="1" as="geometry">
            <mxPoint x="520" y="150" as="sourcePoint" />
            <mxPoint x="630" y="140" as="targetPoint" />
            <Array as="points">
              <mxPoint x="520" y="140" />
            </Array>
          </mxGeometry>
        </mxCell>
        <mxCell id="PzXRuTa8uYMyeLOgMuWR-21" value="&lt;font style=&quot;font-size: 8px;&quot;&gt;admin kantor atau kebun?&lt;/font&gt;" style="text;html=1;align=center;verticalAlign=middle;whiteSpace=wrap;rounded=0;fontSize=8;" vertex="1" parent="PzXRuTa8uYMyeLOgMuWR-10">
          <mxGeometry x="463" y="110" width="110" height="30" as="geometry" />
        </mxCell>
        <mxCell id="PzXRuTa8uYMyeLOgMuWR-22" value="" style="ellipse;whiteSpace=wrap;html=1;" vertex="1" parent="PzXRuTa8uYMyeLOgMuWR-10">
          <mxGeometry x="880" y="60" width="40" height="40" as="geometry" />
        </mxCell>
        <mxCell id="PzXRuTa8uYMyeLOgMuWR-23" value="" style="endArrow=classic;html=1;rounded=0;entryX=0;entryY=0.5;entryDx=0;entryDy=0;exitX=0.999;exitY=0.445;exitDx=0;exitDy=0;exitPerimeter=0;" edge="1" parent="PzXRuTa8uYMyeLOgMuWR-10" source="PzXRuTa8uYMyeLOgMuWR-18" target="PzXRuTa8uYMyeLOgMuWR-22">
          <mxGeometry width="50" height="50" relative="1" as="geometry">
            <mxPoint x="580" y="60" as="sourcePoint" />
            <mxPoint x="630" y="10" as="targetPoint" />
          </mxGeometry>
        </mxCell>
        <mxCell id="PzXRuTa8uYMyeLOgMuWR-24" value="&lt;font style=&quot;font-size: 8px;&quot;&gt;admin kantor&lt;/font&gt;" style="text;html=1;align=center;verticalAlign=middle;whiteSpace=wrap;rounded=0;fontSize=8;" vertex="1" parent="PzXRuTa8uYMyeLOgMuWR-10">
          <mxGeometry x="565" y="7" width="60" height="15" as="geometry" />
        </mxCell>
        <mxCell id="PzXRuTa8uYMyeLOgMuWR-25" value="login sebagai admin kantor" style="whiteSpace=wrap;html=1;fontColor=#000000;rounded=1;fontSize=10;" vertex="1" parent="PzXRuTa8uYMyeLOgMuWR-10">
          <mxGeometry x="633" y="7" width="80" height="40" as="geometry" />
        </mxCell>
        <mxCell id="PzXRuTa8uYMyeLOgMuWR-26" value="login sebagai admin kantor" style="whiteSpace=wrap;html=1;fontColor=#000000;rounded=1;fontSize=10;" vertex="1" parent="PzXRuTa8uYMyeLOgMuWR-10">
          <mxGeometry x="633" y="116" width="80" height="40" as="geometry" />
        </mxCell>
        <mxCell id="PzXRuTa8uYMyeLOgMuWR-27" value="" style="endArrow=classic;html=1;rounded=1;exitX=0.5;exitY=0;exitDx=0;exitDy=0;curved=0;entryX=0.001;entryY=0.352;entryDx=0;entryDy=0;entryPerimeter=0;" edge="1" parent="PzXRuTa8uYMyeLOgMuWR-10" source="PzXRuTa8uYMyeLOgMuWR-19" target="PzXRuTa8uYMyeLOgMuWR-25">
          <mxGeometry width="50" height="50" relative="1" as="geometry">
            <mxPoint x="522" y="-5" as="sourcePoint" />
            <mxPoint x="630" y="23" as="targetPoint" />
            <Array as="points">
              <mxPoint x="520" y="20" />
            </Array>
          </mxGeometry>
        </mxCell>
        <mxCell id="PzXRuTa8uYMyeLOgMuWR-28" value="&lt;font style=&quot;font-size: 8px;&quot;&gt;admin kebun&lt;/font&gt;" style="text;html=1;align=center;verticalAlign=middle;whiteSpace=wrap;rounded=0;fontSize=8;" vertex="1" parent="PzXRuTa8uYMyeLOgMuWR-10">
          <mxGeometry x="567" y="124.5" width="60" height="15" as="geometry" />
        </mxCell>
        <mxCell id="PzXRuTa8uYMyeLOgMuWR-29" value="" style="endArrow=classic;html=1;rounded=1;entryX=0.5;entryY=0;entryDx=0;entryDy=0;exitX=1;exitY=0.5;exitDx=0;exitDy=0;curved=0;" edge="1" parent="PzXRuTa8uYMyeLOgMuWR-10" source="PzXRuTa8uYMyeLOgMuWR-25" target="PzXRuTa8uYMyeLOgMuWR-18">
          <mxGeometry width="50" height="50" relative="1" as="geometry">
            <mxPoint x="600" y="170" as="sourcePoint" />
            <mxPoint x="650" y="120" as="targetPoint" />
            <Array as="points">
              <mxPoint x="810" y="27" />
            </Array>
          </mxGeometry>
        </mxCell>
        <mxCell id="PzXRuTa8uYMyeLOgMuWR-30" value="" style="endArrow=classic;html=1;rounded=1;entryX=0.5;entryY=1;entryDx=0;entryDy=0;exitX=1.03;exitY=0.586;exitDx=0;exitDy=0;exitPerimeter=0;curved=0;" edge="1" parent="PzXRuTa8uYMyeLOgMuWR-10" source="PzXRuTa8uYMyeLOgMuWR-26" target="PzXRuTa8uYMyeLOgMuWR-18">
          <mxGeometry width="50" height="50" relative="1" as="geometry">
            <mxPoint x="600" y="170" as="sourcePoint" />
            <mxPoint x="650" y="120" as="targetPoint" />
            <Array as="points">
              <mxPoint x="810" y="140" />
            </Array>
          </mxGeometry>
        </mxCell>
        <mxCell id="PzXRuTa8uYMyeLOgMuWR-31" value="" style="edgeStyle=orthogonalEdgeStyle;rounded=1;orthogonalLoop=1;jettySize=auto;html=1;curved=0;" edge="1" parent="PzXRuTa8uYMyeLOgMuWR-1" source="PzXRuTa8uYMyeLOgMuWR-11" target="PzXRuTa8uYMyeLOgMuWR-8">
          <mxGeometry relative="1" as="geometry" />
        </mxCell>
        <mxCell id="PzXRuTa8uYMyeLOgMuWR-32" value="" style="edgeStyle=orthogonalEdgeStyle;rounded=0;orthogonalLoop=1;jettySize=auto;html=1;" edge="1" parent="PzXRuTa8uYMyeLOgMuWR-1" source="PzXRuTa8uYMyeLOgMuWR-9" target="PzXRuTa8uYMyeLOgMuWR-14">
          <mxGeometry relative="1" as="geometry">
            <mxPoint x="400" y="160" as="targetPoint" />
          </mxGeometry>
        </mxCell>
      </root>
    </mxGraphModel>
  </diagram>
</mxfile>
